<svg xmlns="http://www.w3.org/2000/svg" xmlns:xlink="http://www.w3.org/1999/xlink" 
  viewBox="0 100 960 310" preserveAspectRatio="xMidYMid meet" version="1.0">
  <defs>
    <g />
    <clipPath id="dfb5e5bf42">
      <path d="M 0.886719 0 L 959.113281 0 L 959.113281 539 L 0.886719 539 Z M 0.886719 0 "
        clip-rule="nonzero" />
    </clipPath>
    <clipPath id="e05fd166c1">
      <path d="M 90 89.890625 L 233 89.890625 L 233 256 L 90 256 Z M 90 89.890625 "
        clip-rule="nonzero" />
    </clipPath>
    <clipPath id="c04f044f9d">
      <path d="M 50 180 L 282.132812 180 L 282.132812 405.804688 L 50 405.804688 Z M 50 180 "
        clip-rule="nonzero" />
    </clipPath>
    <clipPath id="02ecff7927">
      <path d="M 32.097656 123 L 147 123 L 147 315 L 32.097656 315 Z M 32.097656 123 "
        clip-rule="nonzero" />
    </clipPath>
    <clipPath id="7721e45d60">
      <rect x="0" width="472" y="0" height="313" />
    </clipPath>
    <clipPath id="11993de621">
      <path d="M 0.453125 92 L 205.753906 92 L 205.753906 258 L 0.453125 258 Z M 0.453125 92 "
        clip-rule="nonzero" />
    </clipPath>
    <clipPath id="4ff2d56ee6">
      <rect x="0" width="206" y="0" height="313" />
    </clipPath>
  </defs>
  <path fill="#fff"
    d="M 200.394531 162.527344 L 196.644531 218.347656 C 196.324219 223.09375 190.621094 225.320312 187.171875 222.042969 L 121.945312 160.085938 L 132.554688 100.878906 C 133.367188 96.335938 139.007812 94.660156 142.171875 98.023438 L 198.882812 158.304688 C 199.953125 159.441406 200.5 160.96875 200.394531 162.527344 Z M 200.394531 162.527344 "
    fill-opacity="1" fill-rule="nonzero" />
  <g clip-path="url(#e05fd166c1)">
    <path stroke-linecap="butt" transform="matrix(1.403848, 0, 0, 1.403848, 32.097445, 89.892867)"
      fill="none" stroke-linejoin="miter"
      d="M 119.88272 51.739569 L 117.21149 91.501938 C 116.983323 94.882713 112.920827 96.468756 110.463852 94.134213 L 64.001148 50.000487 L 71.558503 7.825663 C 72.137269 4.58958 76.155244 3.395874 78.409094 5.791633 L 118.80588 48.731653 C 119.568294 49.541369 119.957848 50.629339 119.88272 51.739569 Z M 119.88272 51.739569 "
      stroke="#000" stroke-width="4" stroke-opacity="1" stroke-miterlimit="4" />
  </g>
  <path fill="#fff"
    d="M 157.957031 391.265625 L 104.609375 359.5625 C 90.984375 351.46875 82.636719 336.792969 82.636719 320.945312 L 82.636719 288.964844 C 82.636719 273.117188 90.984375 258.441406 104.609375 250.347656 L 157.957031 218.644531 C 172.101562 210.242188 189.710938 210.242188 203.855469 218.644531 L 257.199219 250.347656 C 270.824219 258.441406 279.175781 273.117188 279.175781 288.964844 L 279.175781 320.945312 C 279.175781 336.792969 270.824219 351.46875 257.199219 359.5625 L 203.855469 391.265625 C 189.710938 399.671875 172.101562 399.671875 157.957031 391.265625 Z M 157.957031 391.265625 "
    fill-opacity="1" fill-rule="nonzero" />
  <g clip-path="url(#c04f044f9d)">
    <path stroke-linecap="butt" transform="matrix(1.403848, 0, 0, 1.403848, 32.097445, 89.892867)"
      fill="none" stroke-linejoin="miter"
      d="M 89.653302 214.676242 L 51.652275 192.09322 C 41.946807 186.327815 36.000538 175.873846 36.000538 164.585117 L 36.000538 141.804535 C 36.000538 130.515807 41.946807 120.061837 51.652275 114.296433 L 89.653302 91.713411 C 99.728847 85.728186 112.272497 85.728186 122.348043 91.713411 L 160.346287 114.296433 C 170.051756 120.061837 176.000807 130.515807 176.000807 141.804535 L 176.000807 164.585117 C 176.000807 175.873846 170.051756 186.327815 160.346287 192.09322 L 122.348043 214.676242 C 112.272497 220.664249 99.728847 220.664249 89.653302 214.676242 Z M 89.653302 214.676242 "
      stroke="#000" stroke-width="4" stroke-opacity="1" stroke-miterlimit="4" />
  </g>
  <path fill="#000"
    d="M 191.441406 325.445312 C 191.992188 325.445312 192.539062 325.5 193.082031 325.609375 C 193.625 325.714844 194.152344 325.875 194.664062 326.085938 C 195.175781 326.296875 195.660156 326.558594 196.121094 326.867188 C 196.578125 327.171875 197.003906 327.523438 197.394531 327.914062 C 197.785156 328.304688 198.136719 328.730469 198.441406 329.1875 C 198.75 329.648438 199.011719 330.132812 199.222656 330.644531 C 199.433594 331.15625 199.59375 331.683594 199.699219 332.226562 C 199.808594 332.769531 199.863281 333.316406 199.863281 333.867188 L 199.863281 334.542969 C 199.863281 335.09375 199.808594 335.640625 199.699219 336.183594 C 199.59375 336.726562 199.433594 337.253906 199.222656 337.765625 C 199.011719 338.277344 198.75 338.761719 198.441406 339.222656 C 198.136719 339.679688 197.785156 340.105469 197.394531 340.496094 C 197.003906 340.886719 196.578125 341.238281 196.121094 341.542969 C 195.660156 341.851562 195.175781 342.113281 194.664062 342.324219 C 194.152344 342.535156 193.625 342.695312 193.082031 342.800781 C 192.539062 342.910156 191.992188 342.964844 191.441406 342.964844 C 190.886719 342.964844 190.339844 342.910156 189.796875 342.800781 C 189.253906 342.695312 188.726562 342.535156 188.214844 342.324219 C 187.707031 342.113281 187.21875 341.851562 186.761719 341.546875 C 186.300781 341.238281 185.875 340.886719 185.484375 340.496094 C 185.09375 340.105469 184.742188 339.679688 184.4375 339.222656 C 184.128906 338.761719 183.871094 338.277344 183.65625 337.765625 C 183.445312 337.253906 183.285156 336.726562 183.179688 336.183594 C 183.070312 335.640625 183.015625 335.09375 183.015625 334.542969 L 183.015625 333.867188 C 183.015625 333.316406 183.070312 332.769531 183.179688 332.226562 C 183.285156 331.683594 183.445312 331.15625 183.65625 330.644531 C 183.871094 330.132812 184.128906 329.648438 184.4375 329.1875 C 184.742188 328.730469 185.09375 328.304688 185.484375 327.914062 C 185.875 327.523438 186.300781 327.171875 186.761719 326.867188 C 187.21875 326.558594 187.707031 326.296875 188.214844 326.085938 C 188.726562 325.875 189.253906 325.714844 189.796875 325.609375 C 190.339844 325.5 190.886719 325.445312 191.441406 325.445312 Z M 191.441406 325.445312 "
    fill-opacity="1" fill-rule="nonzero" />
  <path fill="#000"
    d="M 273.191406 278.972656 C 273.746094 278.972656 274.292969 279.027344 274.835938 279.132812 C 275.378906 279.242188 275.902344 279.402344 276.414062 279.613281 C 276.925781 279.824219 277.410156 280.085938 277.871094 280.390625 C 278.332031 280.699219 278.757812 281.050781 279.148438 281.441406 C 279.539062 281.832031 279.886719 282.257812 280.195312 282.714844 C 280.503906 283.175781 280.761719 283.660156 280.972656 284.171875 C 281.183594 284.683594 281.34375 285.210938 281.453125 285.753906 C 281.5625 286.296875 281.613281 286.84375 281.613281 287.394531 L 281.613281 288.070312 C 281.613281 288.621094 281.5625 289.167969 281.453125 289.710938 C 281.34375 290.253906 281.183594 290.78125 280.972656 291.292969 C 280.761719 291.804688 280.503906 292.289062 280.195312 292.746094 C 279.886719 293.207031 279.539062 293.632812 279.148438 294.023438 C 278.757812 294.414062 278.332031 294.765625 277.871094 295.070312 C 277.410156 295.378906 276.925781 295.640625 276.414062 295.851562 C 275.902344 296.0625 275.378906 296.222656 274.835938 296.328125 C 274.292969 296.4375 273.746094 296.492188 273.191406 296.492188 C 272.636719 296.492188 272.089844 296.4375 271.546875 296.328125 C 271.003906 296.222656 270.480469 296.0625 269.96875 295.851562 C 269.457031 295.640625 268.972656 295.378906 268.511719 295.070312 C 268.050781 294.765625 267.625 294.414062 267.234375 294.023438 C 266.84375 293.632812 266.496094 293.207031 266.1875 292.75 C 265.878906 292.289062 265.621094 291.804688 265.410156 291.292969 C 265.199219 290.78125 265.039062 290.253906 264.929688 289.710938 C 264.824219 289.167969 264.769531 288.621094 264.769531 288.070312 L 264.769531 287.394531 C 264.769531 286.84375 264.824219 286.296875 264.929688 285.753906 C 265.039062 285.210938 265.199219 284.683594 265.410156 284.171875 C 265.621094 283.660156 265.878906 283.175781 266.1875 282.714844 C 266.496094 282.257812 266.84375 281.832031 267.234375 281.441406 C 267.625 281.050781 268.050781 280.699219 268.511719 280.390625 C 268.972656 280.085938 269.457031 279.824219 269.96875 279.613281 C 270.480469 279.402344 271.003906 279.242188 271.546875 279.132812 C 272.089844 279.027344 272.636719 278.972656 273.191406 278.972656 Z M 273.191406 278.972656 "
    fill-opacity="1" fill-rule="nonzero" />
  <path fill="#000"
    d="M 233.550781 322.230469 C 235.101562 322.230469 236.359375 323.488281 236.359375 325.039062 L 236.359375 331.105469 C 236.359375 333.210938 238.59375 334.566406 240.460938 333.597656 L 245.425781 331.015625 C 246.800781 330.300781 248.496094 330.835938 249.210938 332.210938 C 249.929688 333.589844 249.394531 335.28125 248.019531 336 L 237.871094 341.273438 C 236.941406 341.753906 236.359375 342.714844 236.359375 343.765625 L 236.359375 353.113281 C 236.359375 354.664062 235.101562 355.921875 233.550781 355.921875 C 232 355.921875 230.746094 354.664062 230.746094 353.113281 L 230.746094 349.605469 C 230.746094 347.496094 228.511719 346.140625 226.640625 347.113281 L 223.082031 348.964844 C 221.707031 349.679688 220.011719 349.144531 219.296875 347.769531 C 218.582031 346.394531 219.117188 344.695312 220.492188 343.980469 L 229.234375 339.4375 C 230.164062 338.953125 230.746094 337.992188 230.746094 336.945312 L 230.746094 325.039062 C 230.746094 323.488281 232 322.230469 233.550781 322.230469 Z M 233.550781 322.230469 "
    fill-opacity="1" fill-rule="nonzero" />
  <path fill="#fff"
    d="M 114.761719 221.488281 L 111.007812 277.3125 C 110.691406 282.054688 104.988281 284.28125 101.539062 281.003906 L 36.308594 219.046875 L 46.917969 159.839844 C 47.734375 155.300781 53.375 153.625 56.535156 156.984375 L 113.246094 217.265625 C 114.316406 218.402344 114.863281 219.933594 114.761719 221.488281 Z M 114.761719 221.488281 "
    fill-opacity="1" fill-rule="nonzero" />
  <g clip-path="url(#02ecff7927)">
    <path stroke-linecap="butt" transform="matrix(1.403848, 0, 0, 1.403848, 32.097445, 89.892867)"
      fill="none" stroke-linejoin="miter"
      d="M 58.884073 93.739093 L 56.210061 133.504245 C 55.984676 136.882238 51.922181 138.46828 49.465206 136.133737 L 2.999719 92.000011 L 10.557073 49.825188 C 11.138622 46.591886 15.156597 45.398181 17.407665 47.791157 L 57.804451 90.731177 C 58.566865 91.540894 58.956419 92.631646 58.884073 93.739093 Z M 58.884073 93.739093 "
      stroke="#000" stroke-width="4" stroke-opacity="1" stroke-miterlimit="4" />
  </g>
  <g transform="matrix(1, 0, 0, 1, 308, 136)">
    <g clip-path="url(#7721e45d60)">
      <g fill="#fff" fill-opacity="1">
        <g transform="translate(1.298445, 247.327118)">
          <g>
            <path
              d="M 66.578125 -181.328125 L 66.578125 -72.53125 C 66.578125 -68.90625 67.867188 -65.796875 70.453125 -63.203125 C 73.046875 -60.617188 76.15625 -59.328125 79.78125 -59.328125 C 83.40625 -59.328125 86.515625 -60.617188 89.109375 -63.203125 C 91.703125 -65.796875 93 -68.90625 93 -72.53125 C 93 -76.15625 91.703125 -79.304688 89.109375 -81.984375 C 86.515625 -84.660156 83.40625 -86 79.78125 -86 L 70.203125 -86 L 70.203125 -149.734375 L 79.78125 -149.734375 C 90.488281 -149.734375 100.460938 -147.703125 109.703125 -143.640625 C 118.941406 -139.578125 127.101562 -133.921875 134.1875 -126.671875 C 141.269531 -119.421875 146.796875 -111.128906 150.765625 -101.796875 C 154.734375 -92.472656 156.71875 -82.457031 156.71875 -71.75 C 156.71875 -61.21875 154.734375 -51.289062 150.765625 -41.96875 C 146.796875 -32.644531 141.269531 -24.441406 134.1875 -17.359375 C 127.101562 -10.273438 118.941406 -4.742188 109.703125 -0.765625 C 100.460938 3.203125 90.488281 5.1875 79.78125 5.1875 C 69.25 5.1875 59.316406 3.203125 49.984375 -0.765625 C 40.660156 -4.742188 32.457031 -10.273438 25.375 -17.359375 C 18.300781 -24.441406 12.773438 -32.644531 8.796875 -41.96875 C 4.828125 -51.289062 2.84375 -61.21875 2.84375 -71.75 L 2.84375 -181.328125 Z M 66.578125 -181.328125 " />
          </g>
        </g>
      </g>
      <g fill="#fff" fill-opacity="1">
        <g transform="translate(160.345739, 247.327118)">
          <g>
            <path
              d="M 89.375 -145.328125 L 153.609375 -145.328125 L 153.609375 -70.984375 C 153.609375 -58.546875 151.492188 -47.617188 147.265625 -38.203125 C 143.035156 -28.796875 137.289062 -20.941406 130.03125 -14.640625 C 122.78125 -8.335938 114.664062 -3.628906 105.6875 -0.515625 C 96.707031 2.585938 87.554688 4.140625 78.234375 4.140625 C 68.734375 4.140625 59.492188 2.585938 50.515625 -0.515625 C 41.535156 -3.628906 33.414062 -8.335938 26.15625 -14.640625 C 18.90625 -20.941406 13.164062 -28.796875 8.9375 -38.203125 C 4.707031 -47.617188 2.59375 -58.546875 2.59375 -70.984375 L 2.59375 -145.328125 L 66.828125 -145.328125 L 66.828125 -73.5625 C 66.828125 -69.070312 68.035156 -65.703125 70.453125 -63.453125 C 72.878906 -61.210938 75.472656 -60.09375 78.234375 -60.09375 C 80.992188 -60.09375 83.539062 -61.210938 85.875 -63.453125 C 88.207031 -65.703125 89.375 -69.070312 89.375 -73.5625 Z M 89.375 -145.328125 " />
          </g>
        </g>
      </g>
      <g fill="#fff" fill-opacity="1">
        <g transform="translate(316.543643, 247.327118)">
          <g>
            <path
              d="M 66.0625 0 L 2.328125 0 L 2.328125 -74.609375 C 2.328125 -87.390625 4.441406 -98.523438 8.671875 -108.015625 C 12.910156 -117.515625 18.613281 -125.414062 25.78125 -131.71875 C 32.945312 -138.03125 40.972656 -142.738281 49.859375 -145.84375 C 58.753906 -148.945312 67.867188 -150.5 77.203125 -150.5 C 86.523438 -150.5 95.675781 -148.945312 104.65625 -145.84375 C 113.632812 -142.738281 121.660156 -138.03125 128.734375 -131.71875 C 135.816406 -125.414062 141.472656 -117.515625 145.703125 -108.015625 C 149.941406 -98.523438 152.0625 -87.390625 152.0625 -74.609375 L 152.0625 0 L 88.328125 0 L 88.328125 -74.609375 C 88.328125 -78.398438 87.203125 -81.375 84.953125 -83.53125 C 82.710938 -85.695312 80.128906 -86.78125 77.203125 -86.78125 C 74.429688 -86.78125 71.878906 -85.695312 69.546875 -83.53125 C 67.222656 -81.375 66.0625 -78.398438 66.0625 -74.609375 Z M 66.0625 0 " />
          </g>
        </g>
      </g>
    </g>
  </g>
  <g transform="matrix(1, 0, 0, 1, 710, 136)">
    <g clip-path="url(#4ff2d56ee6)">
      <g clip-path="url(#11993de621)">
        <g fill="#000" fill-opacity="1">
          <g transform="translate(15.479268, 247.327118)">
            <g>
              <path
                d="M 106.984375 -155.039062 L 192.214844 -155.039062 L 141.816406 -67.925781 L 133.40625 -72.792969 L 141.652344 -77.925781 L 196.234375 9.714844 L 104.945312 9.714844 L 102.097656 5.117188 C 96.722656 -3.546875 91.390625 -12.257812 86.105469 -21.011719 C 80.871094 -29.675781 75.597656 -38.210938 70.28125 -46.613281 L 78.488281 -51.808594 L 78.488281 -42.09375 L 74.34375 -42.09375 L 74.34375 -51.808594 L 82.578125 -56.96875 L 97.957031 -32.425781 L 72 9.714844 L -19.203125 9.714844 L 34.730469 -77.882812 L 43 -72.792969 L 34.566406 -67.972656 L -15.1875 -155.039062 L 75.832031 -155.039062 L 97.207031 -114.070312 L 88.59375 -109.574219 L 79.953125 -114.019531 L 101.058594 -155.039062 Z M 106.984375 -135.609375 L 106.984375 -145.324219 L 115.625 -140.878906 L 88.652344 -88.457031 L 61.328125 -140.828125 L 69.941406 -145.324219 L 69.941406 -135.609375 L 1.554688 -135.609375 L 1.554688 -145.324219 L 9.988281 -150.144531 L 54.296875 -72.605469 L 6.460938 5.09375 L -1.8125 0 L -1.8125 -9.714844 L 66.574219 -9.714844 L 66.574219 0 L 58.304688 -5.09375 L 78.25 -37.476562 L 86.519531 -32.378906 L 78.289062 -27.222656 L 56.792969 -61.523438 L 83.839844 -61.523438 L 86.699219 -57.003906 C 92.089844 -48.484375 97.433594 -39.835938 102.738281 -31.054688 C 107.984375 -22.367188 113.273438 -13.722656 118.609375 -5.117188 L 110.351562 0 L 110.351562 -9.714844 L 178.738281 -9.714844 L 178.738281 0 L 170.492188 5.136719 L 122.078125 -72.605469 L 166.964844 -150.1875 L 175.371094 -145.324219 L 175.371094 -135.609375 Z M 106.984375 -135.609375 " />
            </g>
          </g>
        </g>
      </g>
      <g fill="#ffbd59" fill-opacity="1">
        <g transform="translate(15.479268, 247.327118)">
          <g>
            <path
              d="M 106.984375 -145.328125 L 175.375 -145.328125 L 133.40625 -72.796875 L 178.75 0 L 110.359375 0 C 105.003906 -8.632812 99.691406 -17.3125 94.421875 -26.03125 C 89.148438 -34.75 83.835938 -43.34375 78.484375 -51.8125 L 74.34375 -51.8125 L 86.515625 -32.375 L 66.578125 0 L -1.8125 0 L 43 -72.796875 L 1.546875 -145.328125 L 69.9375 -145.328125 L 88.59375 -109.578125 Z M 106.984375 -145.328125 " />
          </g>
        </g>
      </g>
    </g>
  </g>
</svg>
